# Blender 4.0.1
# www.blender.org
mtllib tank_turret.mtl
o turret
v 1.587457 0.885600 -2.813181
v 1.761031 -1.172360 -3.144789
v 1.587457 0.885600 2.759284
v 1.587457 -1.314821 3.951823
v -1.587457 0.885600 -2.813181
v -1.924355 -1.259793 -3.144790
v -1.587457 0.885600 2.759284
v -1.587457 -1.259990 3.874038
v -2.209926 -1.281256 -0.181186
v 0.000000 -1.079667 -4.183385
v 1.935325 0.000000 -3.610653
v -1.935325 -0.000000 3.417748
v 1.935325 0.000000 3.417748
v -1.935325 -0.000000 -3.610652
v -0.000000 1.079667 3.345547
v 1.935325 1.079667 -0.011717
v -0.000000 -1.397029 4.347141
v -1.935325 1.079667 -0.011717
v 0.000000 1.079667 -3.368982
v 2.210135 -1.194273 -0.181186
v -0.000000 1.486934 0.020245
v 0.000000 0.000000 4.606993
v -2.550825 0.000000 -0.096452
v 0.000000 -1.372390 -0.213149
v 2.665360 0.000000 -0.096452
v 0.000000 0.000000 -4.936261
vn 0.1825 0.9776 -0.1052
vn -0.1825 0.9776 -0.1052
vn -0.1855 0.9768 0.1069
vn 0.1855 0.9768 0.1069
vn 0.4091 0.0397 0.9116
vn 0.3580 0.6842 0.6355
vn -0.3580 0.6842 0.6355
vn -0.4264 0.0110 0.9045
vn -0.9587 -0.2368 0.1575
vn -0.8703 0.4698 0.1479
vn -0.8607 0.4876 -0.1463
vn -0.9783 -0.1560 -0.1366
vn 0.0099 -0.9989 -0.0449
vn 0.0343 -0.9983 -0.0475
vn 0.0673 -0.9977 -0.0118
vn -0.0604 -0.9982 0.0040
vn 0.9446 -0.2791 -0.1729
vn 0.8339 0.5286 -0.1586
vn 0.8449 0.5103 0.1606
vn 0.9477 -0.2741 0.1633
vn -0.4620 -0.4114 -0.7856
vn -0.3452 0.7461 -0.5693
vn 0.3452 0.7461 -0.5693
vn 0.4740 -0.4472 -0.7585
vt 0.625000 0.500000
vt 0.750000 0.500000
vt 0.750000 0.625000
vt 0.625000 0.625000
vt 0.875000 0.500000
vt 0.875000 0.625000
vt 0.875000 0.750000
vt 0.750000 0.750000
vt 0.625000 0.750000
vt 0.375000 0.750000
vt 0.500000 0.750000
vt 0.500000 0.875000
vt 0.375000 0.875000
vt 0.625000 0.875000
vt 0.625000 1.000000
vt 0.500000 1.000000
vt 0.375000 1.000000
vt 0.375000 0.000000
vt 0.500000 0.000000
vt 0.500000 0.125000
vt 0.375000 0.125000
vt 0.625000 0.000000
vt 0.625000 0.125000
vt 0.625000 0.250000
vt 0.500000 0.250000
vt 0.375000 0.250000
vt 0.125000 0.500000
vt 0.250000 0.500000
vt 0.250000 0.625000
vt 0.125000 0.625000
vt 0.375000 0.500000
vt 0.375000 0.625000
vt 0.250000 0.750000
vt 0.125000 0.750000
vt 0.500000 0.500000
vt 0.500000 0.625000
vt 0.500000 0.375000
vt 0.375000 0.375000
vt 0.625000 0.375000
s 0
usemtl Material.001
f 1/1/1 19/2/1 21/3/1 16/4/1
f 19/2/2 5/5/2 18/6/2 21/3/2
f 21/3/3 18/6/3 7/7/3 15/8/3
f 16/4/4 21/3/4 15/8/4 3/9/4
f 4/10/5 13/11/5 22/12/5 17/13/5
f 13/11/6 3/9/6 15/14/6 22/12/6
f 22/12/7 15/14/7 7/15/7 12/16/7
f 17/13/8 22/12/8 12/16/8 8/17/8
f 8/18/9 12/19/9 23/20/9 9/21/9
f 12/19/10 7/22/10 18/23/10 23/20/10
f 23/20/11 18/23/11 5/24/11 14/25/11
f 9/21/12 23/20/12 14/25/12 6/26/12
f 6/27/13 10/28/13 24/29/13 9/30/13
f 10/28/14 2/31/14 20/32/14 24/29/14
f 24/29/15 20/32/15 4/10/15 17/33/15
f 9/30/16 24/29/16 17/33/16 8/34/16
f 2/31/17 11/35/17 25/36/17 20/32/17
f 11/35/18 1/1/18 16/4/18 25/36/18
f 25/36/19 16/4/19 3/9/19 13/11/19
f 20/32/20 25/36/20 13/11/20 4/10/20
f 6/26/21 14/25/21 26/37/21 10/38/21
f 14/25/22 5/24/22 19/39/22 26/37/22
f 26/37/23 19/39/23 1/1/23 11/35/23
f 10/38/24 26/37/24 11/35/24 2/31/24
